<svg version="1.1" xmlns="http://www.w3.org/2000/svg" xmlns:xlink="http://www.w3.org/1999/xlink" x="0px" y="0px" viewBox="0 0 500 500" style="enable-background:new 0 0 500 500;" xml:space="preserve">
<g id="BACKGROUND">
	<rect y="0.006" width="500" height="499.991" style="fill-rule:evenodd;clip-rule:evenodd;fill:#5ca9db;"/>
</g>
<g id="OBJECTS">
	<g>
		<path style="fill:#FFFFFF;" d="M141.383,269.884c-1.874,0.55-3.649,1.275-5.178,2.327c-7.315,5.038-1.389,10.258,0.734,15.779    c7.524,19.569-40.916,16.552-46.778,33.53c-2.363,6.844-0.379,14.617,5.125,20.076c4.81,4.771,11.83,7.617,18.903,9.669    c32.798,9.517,72.436,9.214,106.917,10.461c40.995,1.482,82.291,2.187,123.304,0.951c6.735-0.203,13.618-0.488,19.869-2.579    c6.251-2.091,11.856-6.35,13.118-11.848c3.058-13.329-19.409-24.487-14.795-37.502c3.84-10.83,20.103-11.59,30.582-15.271    c6.408-2.251,12.557-5.739,15.63-10.923c16.858-28.431-57.655-30.497-74.807-30.322c-30.195,0.309-59.909,5.184-89.943,7.147    c-32.457,2.121-65.962,1.444-97.84,7.402C144.601,269.083,142.957,269.422,141.383,269.884z"/>
		<path style="fill:#FFFFFF;" d="M391.37,323.818c4.732,2.73,10.457,2.924,15.919,3.048c3.21,0.073,6.42,0.145,9.63,0.218    c4.397,0.1,9.215,0.061,12.6-2.747c1.241-1.029,2.235-2.477,2.313-4.087c0.174-3.585-3.949-5.788-7.507-6.26    c-9.331-1.238-15.739-7.999-25.643-5.092C392.341,310.759,381.976,318.399,391.37,323.818z"/>
		<path style="fill:#FFFFFF;" d="M77.844,280.622c-2.696,0.413-5.51,1.025-7.551,2.834c-2.041,1.809-2.938,5.181-1.23,7.308    c1.163,1.448,3.125,1.931,4.947,2.29c9.702,1.914,19.603,2.814,29.491,2.68c3.001-0.041,6.114-0.205,8.775-1.593    c5.773-3.01-0.048-5.212-2.62-6.792c-2.568-1.577-2.921-4.264-4.912-6.222c-2.719-2.674-7.732-1.719-11.202-1.67    C88.291,279.531,83.037,279.827,77.844,280.622z"/>
	</g>
	<g>
		<g>
			<polygon style="fill:#F1FBFE;" points="218.902,350.309 218.902,141.59 322.691,130.167 322.691,337.105    "/>
			<polygon points="177.309,116.302 218.902,141.59 218.902,350.309 177.309,321.26    " style="fill:#CFECFF;"/>
			<polygon points="298.992,81.312 177.309,116.302 198.105,89.894    " style="fill:#1B78B4;"/>
			<path style="fill:#F1FBFE;" d="M298.137,64.8c-0.338-6.531-5.956-11.522-12.482-11.089l-76.605,5.087     c-6.158,0.409-10.944,5.523-10.944,11.695v19.401l100.886-8.583L298.137,64.8z"/>
			<polygon style="fill:#5ca9db;" points="248.477,93.195 177.309,116.302 218.902,141.59    "/>
			<polygon points="218.902,141.59 198.105,89.894 298.992,81.312 322.691,130.167    " style="fill:#B0DCF9;"/>
		</g>
		<g>
			<g>
				<path d="M261.37,235.754c0.226,1.011,0.339,1.983,0.339,2.913c0,0.931-0.113,1.927-0.339,2.99      l-1.991,0.228v4.706c-0.526,0.193-1.046,0.339-1.559,0.438c-0.513,0.099-1.008,0.175-1.484,0.229      c-0.501,0.057-1.008,0.096-1.521,0.114c-0.514,0.019-1.046-0.007-1.597-0.077v-4.706l-11.946,1.366l-0.639-1.123l10.105-24.129      c0.977,0.022,1.935,0.145,2.874,0.37c0.939,0.226,1.847,0.646,2.723,1.264l-6.837,16.775l3.719-0.425v-4.467      c0.55-0.196,1.083-0.343,1.597-0.441c0.513-0.099,1.02-0.177,1.521-0.235c0.476-0.054,0.97-0.09,1.484-0.109      c0.513-0.019,1.033,0.008,1.559,0.081v4.467L261.37,235.754z" style="fill:#5ca9db;"/>
				<path d="M274.105,216.31c1.677-0.192,3.13-0.012,4.358,0.539c1.227,0.551,2.241,1.385,3.043,2.504      c0.801,1.118,1.39,2.481,1.766,4.085c0.376,1.606,0.564,3.366,0.564,5.28c0,1.915-0.201,3.707-0.601,5.373      c-0.401,1.668-1.002,3.146-1.803,4.434c-0.802,1.289-1.829,2.343-3.08,3.165c-1.253,0.821-2.717,1.327-4.395,1.519      c-1.678,0.192-3.131,0.019-4.357-0.518c-1.228-0.538-2.236-1.36-3.024-2.467c-0.789-1.106-1.377-2.448-1.766-4.026      c-0.389-1.577-0.582-3.323-0.582-5.238c0-1.914,0.2-3.718,0.601-5.413c0.4-1.693,1.001-3.192,1.803-4.493      c0.801-1.301,1.822-2.368,3.061-3.202C270.93,217.019,272.401,216.505,274.105,216.31z M274.03,222.341      c-1.002,0.115-1.778,0.828-2.329,2.141c-0.551,1.313-0.826,3.219-0.826,5.717c0,2.473,0.281,4.303,0.845,5.487      c0.563,1.186,1.333,1.723,2.31,1.611c0.951-0.109,1.703-0.82,2.254-2.133c0.55-1.312,0.826-3.206,0.826-5.678      c0-2.499-0.276-4.341-0.826-5.528C275.733,222.772,274.981,222.233,274.03,222.341z" style="fill:#5ca9db;"/>
				<path d="M306.636,230.578c0.226,1.011,0.338,1.983,0.338,2.914c0,0.931-0.113,1.927-0.338,2.99      l-1.991,0.228v4.706c-0.526,0.193-1.046,0.339-1.559,0.438c-0.513,0.099-1.008,0.175-1.484,0.229      c-0.501,0.057-1.008,0.096-1.521,0.114c-0.514,0.019-1.046-0.007-1.597-0.077v-4.706l-11.946,1.366l-0.639-1.123l10.105-24.129      c0.977,0.022,1.935,0.145,2.874,0.37c0.939,0.226,1.846,0.646,2.723,1.264l-6.837,16.775l3.719-0.425v-4.467      c0.55-0.196,1.083-0.343,1.597-0.441c0.513-0.099,1.02-0.177,1.521-0.234c0.476-0.054,0.97-0.09,1.484-0.109      c0.513-0.019,1.033,0.008,1.559,0.081v4.467L306.636,230.578z" style="fill:#5ca9db;"/>
			</g>
			<g>
				<path d="M241.719,256.18c0.451-0.114,1.141-0.281,2.073-0.502c0.931-0.221,2.102-0.412,3.513-0.574      c1.039-0.119,2.087-0.134,3.146-0.047c1.058,0.087,2.014,0.367,2.867,0.842c0.853,0.476,1.543,1.202,2.073,2.182      c0.529,0.98,0.794,2.303,0.794,3.968c0,1.478-0.211,2.729-0.632,3.756c-0.422,1.027-0.98,1.871-1.676,2.533      c-0.696,0.662-1.49,1.169-2.381,1.521c-0.892,0.351-1.808,0.581-2.749,0.688c-0.372,0.043-0.75,0.07-1.132,0.082      c-0.383,0.013-0.652,0.007-0.809-0.017v7.273c-0.51,0.162-0.97,0.288-1.382,0.377c-0.412,0.088-0.794,0.153-1.146,0.194      c-0.687,0.078-1.539,0.082-2.558,0.011V256.18z M246.804,266.149c0.098,0.031,0.265,0.043,0.5,0.037      c0.235-0.005,0.48-0.024,0.735-0.053c0.842-0.096,1.529-0.435,2.059-1.016c0.529-0.58,0.794-1.401,0.794-2.463      c0-0.624-0.084-1.14-0.25-1.547c-0.167-0.408-0.397-0.724-0.691-0.951c-0.294-0.226-0.637-0.37-1.029-0.429      c-0.392-0.059-0.804-0.063-1.235-0.014c-0.117,0.013-0.255,0.029-0.412,0.047c-0.157,0.018-0.314,0.047-0.471,0.085V266.149z" style="fill:#5ca9db;"/>
				<path d="M260.328,276.371c-0.451,0.135-0.863,0.244-1.235,0.329c-0.372,0.084-0.735,0.147-1.088,0.187      c-0.353,0.04-0.76,0.06-1.22,0.061c-0.461,0-0.975-0.018-1.543-0.058l6.586-23.041c0.51-0.12,0.985-0.226,1.426-0.318      c0.441-0.092,0.887-0.164,1.338-0.215c0.372-0.043,0.779-0.069,1.22-0.077c0.441-0.008,0.946-0.014,1.514-0.018l6.497,21.576      c-1.117,0.315-2.098,0.521-2.94,0.617c-0.392,0.045-0.784,0.068-1.176,0.072c-0.392,0.003-0.814-0.012-1.264-0.043l-1.117-4.211      c-0.549,0.23-1.073,0.415-1.573,0.555c-0.5,0.14-0.995,0.238-1.485,0.294c-0.451,0.052-0.911,0.068-1.382,0.05      c-0.47-0.02-0.96-0.073-1.47-0.16L260.328,276.371z M264.444,259.419l-1.97,8.248c0.333,0.066,0.647,0.112,0.941,0.141      c0.294,0.029,0.597,0.026,0.911-0.01c0.333-0.038,0.661-0.101,0.985-0.191c0.324-0.089,0.662-0.204,1.014-0.349L264.444,259.419      z" style="fill:#5ca9db;"/>
				<path d="M285.995,261.356c0.529-0.144,1-0.26,1.411-0.349c0.412-0.088,0.794-0.153,1.147-0.194      c0.333-0.038,0.735-0.063,1.205-0.075c0.47-0.012,0.931-0.002,1.382,0.03v11.362c-1.157,0.59-2.298,1.022-3.425,1.297      c-1.127,0.274-2.092,0.458-2.896,0.55c-1.725,0.197-3.234,0.083-4.528-0.341c-1.294-0.424-2.377-1.096-3.249-2.017      c-0.872-0.92-1.525-2.062-1.955-3.429c-0.431-1.365-0.647-2.88-0.647-4.545s0.225-3.236,0.676-4.713      c0.451-1.476,1.103-2.784,1.955-3.923c0.853-1.137,1.906-2.069,3.16-2.796c1.254-0.725,2.676-1.18,4.263-1.361      c0.941-0.108,1.837-0.137,2.69-0.089s1.789,0.243,2.808,0.584c-0.039,0.858-0.187,1.707-0.441,2.548      c-0.255,0.841-0.52,1.557-0.794,2.15c-0.392-0.1-0.75-0.184-1.073-0.251c-0.323-0.066-0.632-0.115-0.926-0.144      c-0.294-0.029-0.588-0.042-0.882-0.04c-0.294,0.002-0.608,0.023-0.941,0.061c-1.587,0.182-2.813,0.889-3.675,2.121      c-0.863,1.233-1.294,2.973-1.294,5.221c0,2.227,0.421,3.838,1.264,4.834c0.842,0.996,2.097,1.399,3.763,1.208      c0.372-0.043,0.706-0.112,0.999-0.208V261.356z" style="fill:#5ca9db;"/>
				<path d="M305.517,259.56c0,0.728-0.088,1.551-0.264,2.466l-5.675,0.649v4.432l7.379-0.844      c0.177,0.855,0.265,1.636,0.265,2.343c0,0.77-0.088,1.602-0.265,2.496l-12.583,1.439v-22.444l12.407-1.419      c0.078,0.449,0.137,0.869,0.176,1.26c0.039,0.391,0.059,0.764,0.059,1.117c0,0.687-0.079,1.518-0.235,2.493l-7.203,0.824v3.434      l5.675-0.649C305.429,258.052,305.517,258.853,305.517,259.56z" style="fill:#5ca9db;"/>
				<path d="M241.616,282.033c0.534-0.164,1.021-0.297,1.458-0.399c0.437-0.102,0.863-0.176,1.276-0.223      c0.437-0.05,0.893-0.07,1.367-0.06c0.474,0.01,0.881,0.035,1.222,0.073l8.459,14.208v-15.175      c0.632-0.175,1.203-0.318,1.714-0.428c0.51-0.11,0.972-0.188,1.386-0.236c0.413-0.047,0.85-0.072,1.313-0.073      c0.461-0.001,0.948,0.022,1.458,0.066l-0.036,27.644c-0.243,0.105-0.596,0.223-1.057,0.353c-0.462,0.13-0.961,0.226-1.495,0.287      c-0.608,0.07-1.155,0.086-1.64,0.052c-0.487-0.035-0.839-0.065-1.058-0.092l-8.495-14.126v15.098      c-1.07,0.355-2.042,0.582-2.917,0.682c-0.875,0.1-1.86,0.096-2.953-0.011V282.033z" style="fill:#5ca9db;"/>
				<path d="M264.951,293.3c0-2.064,0.224-4.006,0.674-5.825c0.45-1.819,1.142-3.427,2.078-4.826      c0.935-1.397,2.127-2.546,3.573-3.447c1.446-0.901,3.165-1.466,5.159-1.693c1.993-0.228,3.706-0.056,5.141,0.516      c1.434,0.571,2.619,1.449,3.555,2.632c0.935,1.184,1.628,2.634,2.078,4.35c0.45,1.716,0.675,3.606,0.675,5.671      c0,2.065-0.225,3.994-0.675,5.787c-0.45,1.794-1.143,3.383-2.078,4.767c-0.936,1.384-2.121,2.514-3.555,3.388      c-1.434,0.873-3.148,1.424-5.141,1.652c-1.994,0.228-3.713,0.069-5.159-0.475c-1.447-0.544-2.638-1.402-3.573-2.573      c-0.936-1.17-1.629-2.601-2.078-4.292C265.176,297.243,264.951,295.366,264.951,293.3z M281.103,291.454      c0-5.625-1.544-8.262-4.631-7.909c-3.16,0.361-4.74,3.355-4.74,8.98c0,2.814,0.383,4.867,1.148,6.16      c0.766,1.293,1.951,1.848,3.555,1.665C279.547,299.994,281.103,297.029,281.103,291.454z" style="fill:#5ca9db;"/>
				<path d="M295.25,281.862l-6.089,0.696c-0.219-1.084-0.328-2.092-0.328-3.021      c0-0.852,0.109-1.857,0.328-3.018l18.631-2.13c0.097,0.556,0.17,1.077,0.219,1.562c0.048,0.485,0.073,0.947,0.073,1.385      c0,0.852-0.097,1.882-0.292,3.092l-6.089,0.696v21.678c-1.289,0.38-2.358,0.618-3.208,0.716c-0.9,0.103-1.982,0.11-3.245,0.022      V281.862z" style="fill:#5ca9db;"/>
				<path d="M241.628,313.704l8.859-1.013c0.056,0.321,0.098,0.621,0.126,0.9      c0.028,0.279,0.042,0.545,0.042,0.798c0,0.49-0.056,1.084-0.168,1.78l-5.143,0.588v2.719l4.052-0.463      c0.126,0.655,0.189,1.226,0.189,1.717c0,0.506-0.063,1.1-0.189,1.782l-4.052,0.463v6.264c-0.742,0.218-1.358,0.355-1.847,0.411      c-0.518,0.059-1.141,0.063-1.868,0.013V313.704z" style="fill:#5ca9db;"/>
				<path d="M251.516,320.641c0-1.189,0.129-2.307,0.388-3.354c0.259-1.047,0.658-1.974,1.197-2.778      c0.538-0.804,1.224-1.466,2.057-1.984c0.832-0.519,1.823-0.844,2.97-0.975c1.147-0.131,2.134-0.032,2.96,0.297      c0.826,0.328,1.508,0.834,2.047,1.515c0.538,0.682,0.937,1.517,1.197,2.505c0.259,0.988,0.388,2.077,0.388,3.265      c0,1.19-0.13,2.299-0.388,3.332c-0.259,1.033-0.658,1.947-1.197,2.744c-0.539,0.797-1.221,1.447-2.047,1.95      c-0.826,0.504-1.812,0.82-2.96,0.952c-1.147,0.131-2.138,0.04-2.97-0.274c-0.833-0.313-1.519-0.807-2.057-1.481      c-0.539-0.674-0.938-1.497-1.197-2.471C251.645,322.911,251.516,321.831,251.516,320.641z M260.815,319.578      c0-3.239-0.889-4.757-2.666-4.553c-1.819,0.208-2.729,1.931-2.729,5.17c0,1.62,0.22,2.802,0.661,3.547      c0.441,0.745,1.123,1.064,2.047,0.958C259.919,324.495,260.815,322.788,260.815,319.578z" style="fill:#5ca9db;"/>
				<path d="M272.529,326.441c-1.134,0.13-2.075,0.073-2.823-0.167c-0.749-0.241-1.341-0.646-1.774-1.212      c-0.434-0.568-0.738-1.279-0.913-2.136c-0.175-0.857-0.263-1.834-0.263-2.935v-9.115c0.406-0.106,0.756-0.187,1.05-0.243      c0.294-0.056,0.574-0.099,0.839-0.129c0.238-0.027,0.5-0.046,0.787-0.057c0.287-0.01,0.633-0.009,1.039,0.004v8.648      c0,0.743,0.028,1.372,0.084,1.885c0.056,0.514,0.158,0.926,0.304,1.236c0.147,0.31,0.353,0.521,0.619,0.631      c0.265,0.111,0.615,0.142,1.049,0.092c0.434-0.05,0.787-0.16,1.06-0.333c0.273-0.172,0.483-0.43,0.63-0.774      c0.147-0.343,0.245-0.778,0.294-1.304c0.049-0.525,0.073-1.16,0.073-1.903v-8.648c0.42-0.108,0.773-0.189,1.06-0.244      c0.287-0.055,0.549-0.096,0.787-0.123c0.252-0.029,0.525-0.049,0.819-0.06c0.294-0.011,0.644-0.01,1.05,0.003v9.115      c0,1.101-0.088,2.098-0.263,2.995c-0.175,0.897-0.48,1.678-0.913,2.345c-0.434,0.666-1.026,1.205-1.774,1.618      C274.603,326.039,273.663,326.311,272.529,326.441z" style="fill:#5ca9db;"/>
				<path d="M280.737,309.277c0.308-0.095,0.588-0.172,0.84-0.23c0.252-0.058,0.496-0.102,0.734-0.129      c0.252-0.029,0.515-0.04,0.787-0.034c0.273,0.006,0.507,0.02,0.703,0.043l4.87,8.179v-8.736      c0.364-0.101,0.693-0.184,0.987-0.247c0.294-0.063,0.559-0.109,0.797-0.136c0.238-0.027,0.49-0.04,0.756-0.042      c0.266-0.001,0.546,0.012,0.84,0.038l-0.021,15.916c-0.14,0.06-0.343,0.128-0.609,0.202c-0.266,0.075-0.553,0.131-0.861,0.166      c-0.35,0.04-0.664,0.05-0.945,0.03c-0.28-0.02-0.483-0.038-0.609-0.052l-4.891-8.134v8.693c-0.616,0.203-1.176,0.335-1.68,0.392      c-0.504,0.058-1.071,0.055-1.7-0.006V309.277z" style="fill:#5ca9db;"/>
				<path d="M298.748,306.905c2.645-0.302,4.653,0.17,6.025,1.418c1.371,1.247,2.057,3.261,2.057,6.039      c0,2.823-0.7,4.972-2.099,6.447c-1.4,1.475-3.471,2.37-6.214,2.683c-0.7,0.08-1.375,0.124-2.026,0.131      c-0.651,0.008-1.291,0.003-1.921-0.014v-15.914c0.21-0.054,0.476-0.118,0.797-0.192c0.322-0.074,0.672-0.147,1.05-0.221      c0.378-0.073,0.766-0.143,1.165-0.211C297.982,307.004,298.37,306.948,298.748,306.905z M298.286,320.019      c0.098,0.003,0.21-0.003,0.336-0.017c0.126-0.014,0.259-0.03,0.399-0.046c0.546-0.063,1.06-0.192,1.543-0.387      c0.483-0.197,0.899-0.493,1.249-0.89c0.35-0.396,0.626-0.91,0.829-1.543c0.203-0.633,0.304-1.424,0.304-2.376      c0-0.935-0.105-1.704-0.315-2.304c-0.21-0.6-0.487-1.063-0.829-1.388c-0.343-0.325-0.745-0.539-1.207-0.642      c-0.462-0.103-0.945-0.126-1.448-0.069c-0.28,0.032-0.483,0.059-0.609,0.081c-0.126,0.022-0.21,0.035-0.252,0.04V320.019z" style="fill:#5ca9db;"/>
			</g>
			<g>
				<polygon points="309.029,207.424 239.029,215.428 239.029,151.079 309.029,143.075     " style="fill:#5ca9db;"/>
				<g>
					<polygon style="fill:#FFFFFF;" points="302.148,202.345 245.91,208.775 245.91,159.038 302.148,152.607 302.148,164.556             "/>
					<g>
						<path d="M265.922,179.241c0,0.992-0.758,1.883-1.692,1.99c-0.934,0.107-1.692-0.611-1.692-1.603        s0.758-1.883,1.692-1.99C265.165,177.531,265.922,178.249,265.922,179.241z" style="fill:#5ca9db;"/>
						<path d="M286.979,176.834c0,0.992-0.758,1.883-1.692,1.99c-0.935,0.107-1.692-0.611-1.692-1.603        c0-0.992,0.758-1.883,1.692-1.99C286.221,175.124,286.979,175.842,286.979,176.834z" style="fill:#5ca9db;"/>
					</g>
					<g>
						<path d="M269.764,187.165c-0.501,0-0.934-0.376-0.992-0.886c-0.063-0.549,0.332-1.044,0.88-1.107        l9.987-1.142c0.543-0.065,1.044,0.331,1.108,0.88c0.063,0.549-0.332,1.044-0.88,1.107l-9.987,1.142        C269.84,187.163,269.802,187.165,269.764,187.165z" style="fill:#5ca9db;"/>
					</g>
					<polygon points="302.148,157.045 245.91,163.475 245.91,159.038 302.148,152.607 302.148,153.495             " style="fill:#B0DCF9;"/>
					<path style="fill:#FFFFFF;" d="M249.607,161.141c0,0.493-0.377,0.936-0.841,0.989c-0.465,0.053-0.841-0.304-0.841-0.797       c0-0.493,0.377-0.936,0.841-0.99C249.23,160.29,249.607,160.647,249.607,161.141z"/>
					<path style="fill:#FFFFFF;" d="M253.044,160.747c0,0.493-0.377,0.936-0.841,0.989c-0.465,0.053-0.841-0.304-0.841-0.797       s0.377-0.936,0.841-0.99C252.667,159.897,253.044,160.254,253.044,160.747z"/>
					<path style="fill:#FFFFFF;" d="M256.481,160.354c0,0.493-0.377,0.936-0.841,0.989c-0.465,0.053-0.841-0.304-0.841-0.797       s0.377-0.936,0.841-0.989C256.104,159.504,256.481,159.861,256.481,160.354z"/>
				</g>
			</g>
		</g>
		<g>
			<g>
				<g>
					<path d="M180.85,150.941c0.136,0.068,0.283,0.145,0.441,0.232c0.158,0.087,0.306,0.175,0.441,0.265       c0.13,0.086,0.27,0.189,0.422,0.308c0.152,0.12,0.292,0.233,0.422,0.341l1.378,5.053l1.426-3.189       c0.13,0.064,0.26,0.131,0.393,0.2c0.133,0.07,0.263,0.147,0.393,0.233c0.136,0.09,0.275,0.192,0.417,0.305       c0.142,0.113,0.281,0.226,0.417,0.338l0.33,8.16c-0.104-0.047-0.218-0.101-0.344-0.162c-0.126-0.062-0.293-0.161-0.5-0.299       c-0.227-0.15-0.495-0.362-0.805-0.635l-0.136-4.695l-1.067,2.327c-0.116-0.055-0.233-0.114-0.349-0.177       c-0.116-0.062-0.223-0.126-0.32-0.19c-0.097-0.064-0.197-0.137-0.301-0.216c-0.104-0.08-0.21-0.171-0.32-0.274l-0.951-3.624       l-0.107,4.489c-0.272-0.114-0.531-0.253-0.776-0.416c-0.227-0.15-0.488-0.358-0.786-0.622L180.85,150.941z" style="fill:#5ca9db;"/>
					<path d="M189.28,164.584c-0.239-0.159-0.527-0.383-0.863-0.674v-7.941       c0.175,0.087,0.333,0.17,0.475,0.249c0.142,0.079,0.268,0.156,0.378,0.229c0.116,0.077,0.247,0.172,0.393,0.283       c0.145,0.112,0.302,0.238,0.47,0.379v7.941C189.791,164.89,189.507,164.734,189.28,164.584z" style="fill:#5ca9db;"/>
					<path d="M194.014,162.781c0.272,0.307,0.516,0.597,0.732,0.87c0.217,0.274,0.403,0.553,0.558,0.838       c0.155,0.285,0.275,0.583,0.359,0.895c0.084,0.311,0.126,0.649,0.126,1.012c0,0.393-0.06,0.708-0.179,0.943       c-0.12,0.236-0.296,0.389-0.529,0.461c-0.233,0.071-0.519,0.055-0.859-0.048c-0.339-0.103-0.729-0.301-1.169-0.593       c-0.401-0.267-0.755-0.539-1.062-0.817c-0.307-0.278-0.639-0.613-0.994-1.005c0.026-0.242,0.071-0.489,0.136-0.738       c0.065-0.25,0.142-0.497,0.233-0.74c0.595,0.692,1.112,1.184,1.552,1.476c0.33,0.219,0.587,0.333,0.771,0.34       c0.184,0.008,0.277-0.129,0.277-0.411c0-0.118-0.019-0.233-0.058-0.344c-0.039-0.111-0.091-0.218-0.155-0.32       c-0.065-0.102-0.138-0.2-0.218-0.295c-0.081-0.095-0.163-0.188-0.247-0.281l-0.543-0.594c-0.233-0.252-0.445-0.507-0.635-0.767       c-0.191-0.26-0.354-0.527-0.49-0.798c-0.136-0.272-0.241-0.551-0.315-0.838c-0.074-0.287-0.112-0.589-0.112-0.908       c0-0.393,0.058-0.702,0.175-0.929c0.116-0.227,0.279-0.376,0.49-0.448c0.21-0.071,0.464-0.062,0.762,0.028       c0.297,0.09,0.63,0.258,0.999,0.503c0.33,0.219,0.649,0.468,0.956,0.746c0.307,0.278,0.635,0.604,0.985,0.977       c-0.026,0.22-0.073,0.451-0.141,0.691s-0.154,0.452-0.257,0.636c-0.168-0.194-0.366-0.41-0.592-0.649       c-0.227-0.24-0.508-0.471-0.844-0.694c-0.103-0.069-0.202-0.123-0.296-0.163c-0.094-0.04-0.178-0.06-0.252-0.062       c-0.074-0.001-0.134,0.025-0.18,0.081c-0.045,0.055-0.068,0.146-0.068,0.272c0,0.215,0.061,0.415,0.184,0.6       c0.123,0.186,0.268,0.371,0.436,0.557L194.014,162.781z" style="fill:#5ca9db;"/>
					<path d="M199.292,166.288c0.272,0.307,0.516,0.597,0.732,0.87c0.217,0.274,0.403,0.553,0.558,0.838       c0.155,0.285,0.275,0.583,0.359,0.895c0.084,0.311,0.126,0.649,0.126,1.012c0,0.393-0.06,0.708-0.179,0.943       c-0.12,0.236-0.296,0.389-0.529,0.461c-0.233,0.071-0.519,0.055-0.859-0.048c-0.339-0.103-0.729-0.301-1.169-0.593       c-0.401-0.267-0.755-0.539-1.062-0.817c-0.307-0.278-0.639-0.613-0.994-1.005c0.026-0.243,0.071-0.489,0.136-0.738       c0.065-0.25,0.142-0.497,0.233-0.74c0.595,0.692,1.112,1.184,1.552,1.476c0.33,0.219,0.587,0.333,0.771,0.34       c0.184,0.008,0.277-0.129,0.277-0.411c0-0.118-0.019-0.233-0.058-0.344c-0.039-0.111-0.091-0.218-0.155-0.32       c-0.065-0.102-0.138-0.201-0.218-0.295c-0.081-0.095-0.163-0.188-0.247-0.281l-0.543-0.594       c-0.233-0.252-0.445-0.507-0.635-0.767c-0.191-0.26-0.354-0.527-0.49-0.798c-0.136-0.272-0.241-0.551-0.315-0.838       c-0.074-0.287-0.112-0.589-0.112-0.909c0-0.393,0.058-0.702,0.175-0.929c0.116-0.227,0.279-0.376,0.49-0.448       c0.21-0.071,0.464-0.062,0.762,0.028c0.297,0.09,0.63,0.258,0.999,0.503c0.33,0.219,0.648,0.468,0.956,0.746       c0.307,0.278,0.635,0.604,0.985,0.976c-0.026,0.22-0.073,0.451-0.141,0.691c-0.068,0.24-0.154,0.452-0.257,0.635       c-0.168-0.193-0.366-0.41-0.592-0.649c-0.227-0.24-0.508-0.471-0.844-0.694c-0.103-0.069-0.202-0.123-0.296-0.163       c-0.094-0.04-0.178-0.06-0.252-0.062c-0.074-0.001-0.134,0.026-0.179,0.081c-0.045,0.055-0.068,0.146-0.068,0.272       c0,0.215,0.061,0.415,0.184,0.6c0.123,0.186,0.268,0.371,0.436,0.557L199.292,166.288z" style="fill:#5ca9db;"/>
					<path d="M202.91,173.642c-0.239-0.159-0.527-0.383-0.863-0.674v-7.941       c0.175,0.087,0.333,0.17,0.475,0.249c0.142,0.079,0.268,0.156,0.378,0.229c0.116,0.077,0.247,0.172,0.393,0.283       c0.145,0.112,0.302,0.238,0.471,0.379v7.941C203.421,173.948,203.137,173.792,202.91,173.642z" style="fill:#5ca9db;"/>
					<path d="M204.928,166.942c0.142,0.065,0.272,0.129,0.388,0.191c0.116,0.062,0.229,0.13,0.339,0.203       c0.116,0.077,0.238,0.167,0.364,0.27c0.126,0.102,0.234,0.195,0.325,0.277l2.251,5.855v-4.36       c0.168,0.082,0.32,0.161,0.456,0.236c0.136,0.075,0.258,0.15,0.369,0.223c0.11,0.073,0.226,0.158,0.349,0.254       c0.123,0.097,0.252,0.205,0.388,0.325l-0.01,7.935c-0.065-0.021-0.159-0.061-0.281-0.12c-0.123-0.059-0.256-0.137-0.398-0.231       c-0.162-0.107-0.307-0.217-0.437-0.329c-0.129-0.112-0.223-0.194-0.281-0.248l-2.26-5.84v4.338       c-0.285-0.122-0.543-0.261-0.776-0.416c-0.233-0.155-0.495-0.362-0.786-0.622V166.942z" style="fill:#5ca9db;"/>
					<path xmlns="http://www.w3.org/2000/svg" d="M214.949,177.249c0.175,0.087,0.33,0.168,0.466,0.243c0.136,0.076,0.262,0.152,0.378,0.229       c0.11,0.073,0.242,0.169,0.398,0.286c0.155,0.118,0.307,0.241,0.456,0.37v4.049c-0.382-0.091-0.758-0.234-1.13-0.429       c-0.372-0.195-0.691-0.381-0.956-0.557c-0.569-0.378-1.067-0.811-1.494-1.299c-0.427-0.487-0.784-1.008-1.072-1.563       c-0.288-0.554-0.503-1.131-0.645-1.73c-0.143-0.598-0.214-1.195-0.214-1.788s0.074-1.094,0.223-1.503       c0.149-0.409,0.364-0.705,0.645-0.889c0.281-0.183,0.629-0.242,1.043-0.174c0.414,0.068,0.883,0.275,1.407,0.624       c0.31,0.206,0.606,0.429,0.888,0.667c0.282,0.239,0.59,0.552,0.927,0.939c-0.013,0.295-0.062,0.559-0.146,0.793       c-0.084,0.233-0.171,0.42-0.262,0.56c-0.13-0.138-0.247-0.261-0.354-0.369c-0.107-0.108-0.208-0.206-0.305-0.292       s-0.194-0.168-0.291-0.243c-0.097-0.076-0.201-0.15-0.31-0.223c-0.524-0.348-0.928-0.415-1.213-0.2       c-0.285,0.215-0.427,0.723-0.427,1.524c0,0.793,0.139,1.477,0.417,2.051c0.278,0.574,0.692,1.044,1.242,1.409       c0.123,0.082,0.233,0.143,0.33,0.186V177.249z" style="fill:#5ca9db;"/>
				</g>
			</g>
			<g>
				<path d="M180.49,264.117c0.333,0.165,0.634,0.323,0.905,0.474c0.271,0.152,0.511,0.297,0.721,0.436      c0.222,0.147,0.471,0.328,0.748,0.54c0.277,0.213,0.576,0.453,0.896,0.723v11.863l4.269,2.837      c0.061,0.393,0.101,0.727,0.12,1.001c0.018,0.274,0.028,0.517,0.028,0.728c0,0.241-0.009,0.485-0.028,0.734      c-0.019,0.249-0.059,0.536-0.12,0.863l-7.539-5.01V264.117z" style="fill:#5ca9db;"/>
				<path d="M191.207,286.556c-0.456-0.303-1.004-0.731-1.645-1.284v-15.125      c0.333,0.165,0.634,0.323,0.905,0.474c0.271,0.152,0.511,0.297,0.721,0.436c0.222,0.147,0.471,0.328,0.748,0.54      c0.277,0.213,0.576,0.453,0.896,0.723v15.126C192.18,287.139,191.638,286.842,191.207,286.556z" style="fill:#5ca9db;"/>
				<path d="M195.051,273.793c0.271,0.124,0.517,0.245,0.739,0.364c0.222,0.119,0.437,0.248,0.647,0.387      c0.222,0.147,0.453,0.319,0.693,0.514c0.24,0.195,0.446,0.371,0.619,0.528l4.287,11.153v-8.304      c0.32,0.156,0.61,0.306,0.868,0.45c0.259,0.144,0.493,0.285,0.702,0.424c0.209,0.139,0.431,0.301,0.665,0.484      c0.234,0.184,0.48,0.39,0.739,0.618l-0.018,15.113c-0.123-0.04-0.302-0.116-0.536-0.229c-0.234-0.113-0.487-0.26-0.757-0.44      c-0.308-0.205-0.585-0.414-0.832-0.627c-0.247-0.214-0.425-0.371-0.536-0.473l-4.305-11.123v8.262      c-0.542-0.233-1.035-0.497-1.478-0.792c-0.443-0.295-0.942-0.69-1.497-1.186V273.793z" style="fill:#5ca9db;"/>
				<path d="M207.227,281.886c0.333,0.165,0.634,0.323,0.905,0.474c0.271,0.152,0.511,0.297,0.721,0.437      c0.222,0.147,0.471,0.328,0.748,0.54c0.277,0.213,0.576,0.453,0.896,0.723v15.126c-0.653-0.307-1.195-0.603-1.626-0.89      c-0.456-0.303-1.004-0.731-1.645-1.284V281.886z M214.36,293.934l3.455,10.113c-0.21-0.082-0.49-0.223-0.841-0.421      c-0.351-0.199-0.668-0.391-0.952-0.58c-0.357-0.238-0.702-0.485-1.035-0.74c-0.333-0.257-0.616-0.491-0.85-0.703l-3.381-9.873      l3.123-5.424c0.37,0.175,0.69,0.342,0.961,0.501c0.271,0.159,0.548,0.332,0.832,0.521c0.135,0.09,0.289,0.196,0.462,0.318      c0.172,0.122,0.342,0.248,0.508,0.38c0.166,0.132,0.326,0.259,0.48,0.383c0.154,0.123,0.286,0.229,0.398,0.317L214.36,293.934z" style="fill:#5ca9db;"/>
			</g>
			<g>
				<g>
					<path d="M198.904,236.194l-0.611-0.406c-3.239-2.152-5.874-6.925-5.874-10.638v-8.815       c0-3.713,2.635-4.983,5.874-2.831l0.611,0.406c3.239,2.152,5.874,6.925,5.874,10.638v8.815       C204.778,237.076,202.143,238.346,198.904,236.194z M198.293,216.871c-1.619-1.076-2.937-0.441-2.937,1.415v8.815       c0,1.857,1.318,4.243,2.937,5.319l0.611,0.406c1.619,1.076,2.937,0.441,2.937-1.415v-8.815c0-1.857-1.318-4.243-2.937-5.319       L198.293,216.871z" style="fill:#5ca9db;"/>
				</g>
				<g>
					<path xmlns="http://www.w3.org/2000/svg" d="M198.904,211.459l-0.611-0.406c-3.239-2.152-5.874-6.925-5.874-10.638V191.6       c0-3.713,2.635-4.983,5.874-2.831c0.811,0.539,1.469,1.73,1.469,2.66c0,0.93-0.658,1.247-1.469,0.708       c-1.619-1.076-2.937-0.441-2.937,1.415v8.815c0,1.857,1.318,4.243,2.937,5.319l0.611,0.406       c1.619,1.076,2.937,0.441,2.937-1.415v-8.815c0-0.93,0.658-1.247,1.469-0.708c0.811,0.539,1.468,1.73,1.468,2.66v8.815       C204.778,212.342,202.143,213.612,198.904,211.459z" style="fill:#5ca9db;"/>
				</g>
				<g>
					<path d="M198.598,221.959c-0.811-0.539-1.468-1.73-1.468-2.66V205.5c0-0.93,0.657-1.247,1.468-0.708       c0.811,0.539,1.469,1.73,1.469,2.66v13.799C200.067,222.181,199.409,222.498,198.598,221.959z" style="fill:#5ca9db;"/>
				</g>
				<g>
					<path d="M198.904,261.456l-0.611-0.406c-3.239-2.152-5.874-6.925-5.874-10.638v-8.815       c0-3.713,2.635-4.983,5.874-2.831l0.611,0.406c3.239,2.152,5.874,6.925,5.874,10.638v8.815       C204.778,262.338,202.143,263.608,198.904,261.456z M198.293,242.133c-1.619-1.076-2.937-0.441-2.937,1.415v8.815       c0,1.857,1.318,4.243,2.937,5.319l0.611,0.406c1.619,1.076,2.937,0.441,2.937-1.415v-8.815c0-1.857-1.318-4.243-2.937-5.319       L198.293,242.133z" style="fill:#5ca9db;"/>
				</g>
				<g>
					<path d="M198.598,247.221c-0.811-0.539-1.468-1.73-1.468-2.659v-13.799c0-0.93,0.657-1.247,1.468-0.708       c0.811,0.539,1.469,1.73,1.469,2.66v13.799C200.067,247.443,199.409,247.76,198.598,247.221z" style="fill:#5ca9db;"/>
				</g>
			</g>
			<g>
				<path d="M216.922,281.994l-36.648-24.355v-90.093l36.648,24.355V281.994z M183.046,256.303l31.105,20.671      v-83.738l-31.105-20.671V256.303z" style="fill:#5ca9db;"/>
			</g>
		</g>
		<polygon points="180.569,136.665 180.569,142.267 214.983,162.135 214.983,156.434   " style="fill:#5ca9db;"/>
		<polygon points="180.569,288.995 180.569,294.597 214.983,314.465 214.983,308.764   " style="fill:#5ca9db;"/>
	</g>
	
</g>
<text xmlns="http://www.w3.org/2000/svg" style="fill:white;font-family: 'Kumbh Sans', sans-serif;font-size:2rem;" y="430" x="200">Ooops!</text>

</svg>